<svg xmlns="http://www.w3.org/2000/svg" viewBox="0 0 48 48" width="48" height="48"><defs><filter id="sh" x="-20%" y="-20%" width="140%" height="150%"><feGaussianBlur in="SourceAlpha" stdDeviation="1.2"/><feOffset dy="1.2"/><feComponentTransfer><feFuncA type="linear" slope="0.45"/></feComponentTransfer><feMerge><feMergeNode/><feMergeNode in="SourceGraphic"/></feMerge></filter><linearGradient id="pg" x1="0" y1="0" x2="0" y2="1"><stop offset="0" stop-color="#ffffff"/><stop offset="1" stop-color="#e9eef4"/></linearGradient><linearGradient id="fd" x1="0" y1="0" x2="1" y2="1"><stop offset="0" stop-color="#fff"/><stop offset="1" stop-color="#c9d3de"/></linearGradient></defs>
<g filter="url(#sh)"><path d="M10 3.5h20l9 9v31.5a1 1 0 0 1-1 1H10a1 1 0 0 1-1-1V4.5a1 1 0 0 1 1-1z" fill="url(#pg)" stroke="#8795a6" stroke-width="0.9"/>
<path d="M30 3.5v8a1 1 0 0 0 1 1h8" fill="url(#fd)" stroke="#8795a6" stroke-width="0.9" stroke-linejoin="round"/>
<rect x="13" y="16.0" width="22" height="2.2" fill="#b8c3cf"/><rect x="13" y="19.2" width="17" height="2.2" fill="#e9a3a3"/><rect x="13" y="22.4" width="22" height="2.2" fill="#e9a3a3"/><rect x="13" y="25.6" width="17" height="2.2" fill="#9fd59a"/><rect x="13" y="28.8" width="22" height="2.2" fill="#9fd59a"/><rect x="13" y="32.0" width="17" height="2.2" fill="#9fd59a"/><rect x="13" y="35.2" width="22" height="2.2" fill="#b8c3cf"/><rect x="13" y="38.400000000000006" width="17" height="2.2" fill="#9fd59a"/><rect x="13" y="41.6" width="22" height="2.2" fill="#b8c3cf"/><rect x="11" y="16" width="1.6" height="28" fill="#c9d3de"/></g></svg>
