<svg xmlns="http://www.w3.org/2000/svg" viewBox="0 0 48 48" width="48" height="48"><defs><filter id="sh" x="-20%" y="-20%" width="140%" height="150%"><feGaussianBlur in="SourceAlpha" stdDeviation="1.2"/><feOffset dy="1.2"/><feComponentTransfer><feFuncA type="linear" slope="0.45"/></feComponentTransfer><feMerge><feMergeNode/><feMergeNode in="SourceGraphic"/></feMerge></filter><linearGradient id="bk" x1="0" y1="0" x2="0" y2="1"><stop offset="0" stop-color="#e9c46a"/><stop offset="1" stop-color="#b7862c"/></linearGradient><linearGradient id="fr" x1="0" y1="0" x2="0" y2="1"><stop offset="0" stop-color="#ffe7a6"/><stop offset="0.5" stop-color="#f6cd6a"/><stop offset="1" stop-color="#d9a443"/></linearGradient></defs>
<g filter="url(#sh)"><path d="M4 11a2 2 0 0 1 2-2h11l3 3h22a2 2 0 0 1 2 2v26a2 2 0 0 1-2 2H6a2 2 0 0 1-2-2z" fill="url(#bk)" stroke="#8d6420" stroke-width="0.8"/>
<rect x="8" y="10" width="30" height="22" fill="#fff" stroke="#a9b3bf" stroke-width="0.6" transform="rotate(-3 23 20)"/><rect x="10" y="12" width="30" height="20" fill="#f4f7fb" stroke="#a9b3bf" stroke-width="0.6" transform="rotate(4 25 22)"/>
<path d="M3 19.5a2 2 0 0 1 2-2h38a2 2 0 0 1 2 2.2l-1.6 20.5a2 2 0 0 1-2 1.8H6.6a2 2 0 0 1-2-1.8z" fill="url(#fr)" stroke="#9a7024" stroke-width="0.8"/>
<path d="M4.4 20.4c0-1 .7-1.6 1.6-1.6h36c.9 0 1.6.6 1.6 1.6l-.2 2.6H4.6z" fill="#fff" opacity="0.5"/></g></svg>
