<svg xmlns="http://www.w3.org/2000/svg" viewBox="0 0 48 48" width="48" height="48"><defs><filter id="sh" x="-20%" y="-20%" width="140%" height="150%"><feGaussianBlur in="SourceAlpha" stdDeviation="1.2"/><feOffset dy="1.2"/><feComponentTransfer><feFuncA type="linear" slope="0.45"/></feComponentTransfer><feMerge><feMergeNode/><feMergeNode in="SourceGraphic"/></feMerge></filter><linearGradient id="bk" x1="0" y1="0" x2="0" y2="1"><stop offset="0" stop-color="#e9c46a"/><stop offset="1" stop-color="#b7862c"/></linearGradient><linearGradient id="fr" x1="0" y1="0" x2="0" y2="1"><stop offset="0" stop-color="#ffe7a6"/><stop offset="0.5" stop-color="#f6cd6a"/><stop offset="1" stop-color="#d9a443"/></linearGradient></defs>
<g filter="url(#sh)"><path d="M4 11a2 2 0 0 1 2-2h11l3 3h22a2 2 0 0 1 2 2v26a2 2 0 0 1-2 2H6a2 2 0 0 1-2-2z" fill="url(#bk)" stroke="#8d6420" stroke-width="0.8"/>
<rect x="8" y="10" width="30" height="22" fill="#fff" stroke="#a9b3bf" stroke-width="0.6" transform="rotate(-3 23 20)"/><rect x="10" y="12" width="30" height="20" fill="#f4f7fb" stroke="#a9b3bf" stroke-width="0.6" transform="rotate(4 25 22)"/>
<path d="M3 19.5a2 2 0 0 1 2-2h38a2 2 0 0 1 2 2.2l-1.6 20.5a2 2 0 0 1-2 1.8H6.6a2 2 0 0 1-2-1.8z" fill="url(#fr)" stroke="#9a7024" stroke-width="0.8"/>
<path d="M4.4 20.4c0-1 .7-1.6 1.6-1.6h36c.9 0 1.6.6 1.6 1.6l-.2 2.6H4.6z" fill="#fff" opacity="0.5"/><circle cx="35" cy="34" r="8.5" fill="#123a55" stroke="#fff" stroke-width="1.2"/><g transform="translate(41.3 24) scale(-0.06 0.06)"><path d="M100 138 C104 116 126 106 148 112 C168 118 180 146 194 188 C172 183 150 182 134 180 C112 176 98 160 100 138 Z M126 113 C112 96 97 96 91 80 C85 64 72 58 58 64 L51 77 C61 76 68 82 72 92 C78 107 94 117 102 136 Z M42 72 L49 79 L17 120 Z" fill="#fff"/><ellipse cx="51" cy="70" rx="11.5" ry="7.5" transform="rotate(52 51 70)" fill="#fff"/><path d="M132 178 L128 228 L131 276 M142 178 L146 228 L150 276" stroke="#fff" stroke-width="7" fill="none" stroke-linecap="round"/></g></g></svg>
